<?xml version="1.0" encoding="utf-8"?>
<!-- Generator: Adobe Illustrator 19.1.0, SVG Export Plug-In . SVG Version: 6.00 Build 0)  -->
<svg version="1.1" id="Layer_1" xmlns="http://www.w3.org/2000/svg" xmlns:xlink="http://www.w3.org/1999/xlink" x="0px" y="0px"
	 viewBox="-443 246.8 84.2 84.2" style="enable-background:new -443 246.8 84.2 84.2;" xml:space="preserve">
<style type="text/css">
	.st0{fill:#DADADA;}
</style>
<path class="st0" d="M-401.2,248.8c-20.3,0-36.2,7.2-36.2,16.3v14.5v16.3v16.3c0,9.1,15.9,16.3,36.2,16.3s36.2-7.2,36.2-16.3v-16.3
	v-16.3v-14.5C-365,255.9-380.9,248.8-401.2,248.8z M-401.2,252.4c15.4,0,32.6,5.2,32.6,12.7s-17.2,12.7-32.6,12.7
	s-32.6-5.2-32.6-12.7S-416.7,252.4-401.2,252.4z M-433.9,286.8c5.8,5.4,18.1,9.1,32.6,9.1s26.8-3.7,32.6-9.1v9.1
	c0,7.5-17.2,12.7-32.6,12.7s-32.6-5.2-32.6-12.7V286.8z M-401.2,292.2c-15.4,0-32.6-5.2-32.6-12.7v-7.3c5.8,5.4,18.1,9.1,32.6,9.1
	s26.8-3.7,32.6-9.1v7.3C-368.6,287-385.8,292.2-401.2,292.2z M-401.2,324.9c-15.4,0-32.6-5.2-32.6-12.7v-9.1
	c5.8,5.4,18.1,9.1,32.6,9.1s26.8-3.7,32.6-9.1v9.1C-368.6,319.7-385.8,324.9-401.2,324.9z"/>
</svg>
